<mxfile host="app.diagrams.net" modified="2020-08-06T09:12:26.877Z" agent="5.0 (Windows NT 10.0; Win64; x64) AppleWebKit/537.36 (KHTML, like Gecko) Chrome/84.0.4147.89 Safari/537.36" etag="BXTV_dxo_Qfn2IbXGAVb" version="13.6.0" type="github">
  <diagram id="p682-G80JZXrCf7-PKz_" name="Page-1">
    <mxGraphModel dx="866" dy="433" grid="1" gridSize="10" guides="1" tooltips="1" connect="1" arrows="1" fold="1" page="1" pageScale="1" pageWidth="850" pageHeight="1100" math="0" shadow="0">
      <root>
        <mxCell id="0" />
        <mxCell id="1" parent="0" />
        <mxCell id="TjJI8a_OsG8qUfzF8PUW-7" style="edgeStyle=orthogonalEdgeStyle;rounded=0;orthogonalLoop=1;jettySize=auto;html=1;" parent="1" source="TjJI8a_OsG8qUfzF8PUW-1" target="TjJI8a_OsG8qUfzF8PUW-2" edge="1">
          <mxGeometry relative="1" as="geometry" />
        </mxCell>
        <mxCell id="TjJI8a_OsG8qUfzF8PUW-8" style="edgeStyle=orthogonalEdgeStyle;rounded=0;orthogonalLoop=1;jettySize=auto;html=1;entryX=0.5;entryY=0;entryDx=0;entryDy=0;" parent="1" source="TjJI8a_OsG8qUfzF8PUW-1" target="TjJI8a_OsG8qUfzF8PUW-3" edge="1">
          <mxGeometry relative="1" as="geometry" />
        </mxCell>
        <mxCell id="TjJI8a_OsG8qUfzF8PUW-13" style="edgeStyle=orthogonalEdgeStyle;rounded=0;orthogonalLoop=1;jettySize=auto;html=1;entryX=0.5;entryY=0;entryDx=0;entryDy=0;" parent="1" source="TjJI8a_OsG8qUfzF8PUW-1" target="TjJI8a_OsG8qUfzF8PUW-12" edge="1">
          <mxGeometry relative="1" as="geometry" />
        </mxCell>
        <mxCell id="TjJI8a_OsG8qUfzF8PUW-1" value="root" style="rounded=1;whiteSpace=wrap;html=1;fillColor=#ffe6cc;strokeColor=#d79b00;fontSize=13;fontStyle=1" parent="1" vertex="1">
          <mxGeometry x="450" y="230" width="70" height="40" as="geometry" />
        </mxCell>
        <mxCell id="TjJI8a_OsG8qUfzF8PUW-2" value="Container" style="rounded=1;whiteSpace=wrap;html=1;fillColor=#dae8fc;strokeColor=#6c8ebf;fontSize=13;fontStyle=1" parent="1" vertex="1">
          <mxGeometry x="280" y="300" width="70" height="40" as="geometry" />
        </mxCell>
        <mxCell id="TjJI8a_OsG8qUfzF8PUW-16" value="" style="edgeStyle=orthogonalEdgeStyle;rounded=0;orthogonalLoop=1;jettySize=auto;html=1;fontSize=13;" parent="1" source="TjJI8a_OsG8qUfzF8PUW-3" target="TjJI8a_OsG8qUfzF8PUW-4" edge="1">
          <mxGeometry relative="1" as="geometry" />
        </mxCell>
        <mxCell id="TjJI8a_OsG8qUfzF8PUW-3" value="Expanded" style="rounded=1;whiteSpace=wrap;html=1;fillColor=#dae8fc;strokeColor=#6c8ebf;fontSize=13;fontStyle=1" parent="1" vertex="1">
          <mxGeometry x="450" y="300" width="70" height="40" as="geometry" />
        </mxCell>
        <mxCell id="TjJI8a_OsG8qUfzF8PUW-14" style="edgeStyle=orthogonalEdgeStyle;rounded=0;orthogonalLoop=1;jettySize=auto;html=1;entryX=0.5;entryY=0;entryDx=0;entryDy=0;fontSize=13;" parent="1" source="TjJI8a_OsG8qUfzF8PUW-4" target="TjJI8a_OsG8qUfzF8PUW-5" edge="1">
          <mxGeometry relative="1" as="geometry">
            <Array as="points">
              <mxPoint x="415" y="390" />
            </Array>
          </mxGeometry>
        </mxCell>
        <mxCell id="TjJI8a_OsG8qUfzF8PUW-15" style="edgeStyle=orthogonalEdgeStyle;rounded=0;orthogonalLoop=1;jettySize=auto;html=1;entryX=0.5;entryY=0;entryDx=0;entryDy=0;fontSize=13;" parent="1" source="TjJI8a_OsG8qUfzF8PUW-4" target="TjJI8a_OsG8qUfzF8PUW-6" edge="1">
          <mxGeometry relative="1" as="geometry">
            <Array as="points">
              <mxPoint x="555" y="390" />
            </Array>
          </mxGeometry>
        </mxCell>
        <mxCell id="TjJI8a_OsG8qUfzF8PUW-4" value="Row" style="rounded=1;whiteSpace=wrap;html=1;fillColor=#e1d5e7;strokeColor=#9673a6;fontSize=13;fontStyle=1" parent="1" vertex="1">
          <mxGeometry x="450" y="370" width="70" height="40" as="geometry" />
        </mxCell>
        <mxCell id="TjJI8a_OsG8qUfzF8PUW-18" value="" style="edgeStyle=orthogonalEdgeStyle;rounded=0;orthogonalLoop=1;jettySize=auto;html=1;fontSize=13;" parent="1" source="TjJI8a_OsG8qUfzF8PUW-5" target="TjJI8a_OsG8qUfzF8PUW-17" edge="1">
          <mxGeometry relative="1" as="geometry" />
        </mxCell>
        <mxCell id="TjJI8a_OsG8qUfzF8PUW-5" value="Expanded" style="rounded=1;whiteSpace=wrap;html=1;fillColor=#fff2cc;strokeColor=#d6b656;fontSize=13;fontStyle=1" parent="1" vertex="1">
          <mxGeometry x="380" y="430" width="70" height="40" as="geometry" />
        </mxCell>
        <mxCell id="TjJI8a_OsG8qUfzF8PUW-6" value="Container" style="rounded=1;whiteSpace=wrap;html=1;fillColor=#fff2cc;strokeColor=#d6b656;fontSize=13;fontStyle=1" parent="1" vertex="1">
          <mxGeometry x="520" y="430" width="70" height="40" as="geometry" />
        </mxCell>
        <mxCell id="TjJI8a_OsG8qUfzF8PUW-12" value="Container" style="rounded=1;whiteSpace=wrap;html=1;fillColor=#dae8fc;strokeColor=#6c8ebf;fontSize=13;fontStyle=1" parent="1" vertex="1">
          <mxGeometry x="620" y="300" width="70" height="40" as="geometry" />
        </mxCell>
        <mxCell id="TjJI8a_OsG8qUfzF8PUW-17" value="Container" style="rounded=1;whiteSpace=wrap;html=1;fillColor=#f5f5f5;strokeColor=#666666;fontColor=#333333;fontSize=13;fontStyle=1" parent="1" vertex="1">
          <mxGeometry x="380" y="490" width="70" height="40" as="geometry" />
        </mxCell>
      </root>
    </mxGraphModel>
  </diagram>
</mxfile>
